# xmcd
#
# Track frame offsets:
#	150
#	9092
#	21669
#	31387
#	44725
#	61690
#	77227
#	92295
#	102425
#	114685
#	123837
#	135970
#	148552
#	161672
#
# Disc length: 2285 seconds
#
# Revision: 0
# Processed by: cddbd v1.5PL3 Copyright (c) Steve Scherf et al.
# Submitted via: dBpowerAMP V4.0
#
DISCID=af08eb0e
DTITLE=Tino and Tinoco - Luar do sertão
DYEAR=1900
DGENRE=Country
TTITLE0=Canta Moçada
TTITLE1=Canoeiro do Mar
TTITLE2=Gaúcho Franco
TTITLE3=Teu Desprezo
TTITLE4=Minas Gerais
TTITLE5=Tempo de Carreiro
TTITLE6=Viola Cabocla
TTITLE7=Ingrata Morena
TTITLE8=Despedida de Solteiro
TTITLE9=Adeus Fronteira
TTITLE10=Violeiro
TTITLE11=Pé da Letra
TTITLE12=Irradiação
TTITLE13=Laço da Amizade
EXTD=
EXTT0=
EXTT1=
EXTT2=
EXTT3=
EXTT4=
EXTT5=
EXTT6=
EXTT7=
EXTT8=
EXTT9=
EXTT10=
EXTT11=
EXTT12=
EXTT13=
PLAYORDER=
